<svg width="392" height="261" viewBox="0 0 392 261" fill="none" xmlns="http://www.w3.org/2000/svg">
<g filter="url(#filter0_d_18_64)">
<path fill-rule="evenodd" clip-rule="evenodd" d="M385.345 232C387.091 221.593 388 210.903 388 200C388 93.9613 302.039 8 196 8C89.9613 8 4 93.9613 4 200C4 210.903 4.90876 221.593 6.65467 232H385.345Z" fill="url(#paint0_linear_18_64)"/>
</g>
<ellipse cx="193.5" cy="234.5" rx="141.5" ry="26.5" fill="black"/>
<ellipse cx="195" cy="231.5" rx="79" ry="23.5" fill="#FFFCFC"/>
<mask id="path-4-inside-1_18_64" fill="white">
<path fill-rule="evenodd" clip-rule="evenodd" d="M77.0595 211C77.0199 211.332 77 211.665 77 212C77 229.121 129.159 243 193.5 243C257.841 243 310 229.121 310 212C310 211.665 309.98 211.332 309.941 211H77.0595Z"/>
</mask>
<path fill-rule="evenodd" clip-rule="evenodd" d="M77.0595 211C77.0199 211.332 77 211.665 77 212C77 229.121 129.159 243 193.5 243C257.841 243 310 229.121 310 212C310 211.665 309.98 211.332 309.941 211H77.0595Z" fill="black"/>
<path d="M77.0595 211V210H76.1715L76.0665 210.882L77.0595 211ZM309.941 211L310.934 210.882L310.828 210H309.941V211ZM78 212C78 211.705 78.0175 211.411 78.0524 211.118L76.0665 210.882C76.0223 211.253 76 211.626 76 212H78ZM193.5 242C161.39 242 132.356 238.536 111.379 232.954C100.884 230.161 92.4618 226.853 86.6877 223.22C80.863 219.556 78 215.739 78 212H76C76 216.822 79.6569 221.16 85.6226 224.913C91.639 228.698 100.278 232.07 110.865 234.887C132.053 240.525 161.268 244 193.5 244V242ZM309 212C309 215.739 306.137 219.556 300.312 223.22C294.538 226.853 286.116 230.161 275.621 232.954C254.644 238.536 225.61 242 193.5 242V244C225.732 244 254.947 240.525 276.135 234.887C286.722 232.07 295.361 228.698 301.377 224.913C307.343 221.16 311 216.822 311 212H309ZM308.948 211.118C308.982 211.411 309 211.705 309 212H311C311 211.626 310.978 211.253 310.934 210.882L308.948 211.118ZM309.941 210H77.0595V212H309.941V210Z" fill="black" mask="url(#path-4-inside-1_18_64)"/>
<path d="M142 225.5C116.4 216.7 104.667 159.167 102 131.5C163.167 119.333 267 111.5 287.5 131.5C292.245 136.129 287.321 145.247 286.176 152.5C285.483 156.893 284.569 161.331 283.5 165.73C276.601 194.125 263.272 220.873 261.5 223C259 226 174 236.5 142 225.5Z" fill="white"/>
<ellipse cx="194.5" cy="131" rx="93.5" ry="17" fill="white"/>
<path fill-rule="evenodd" clip-rule="evenodd" d="M245 185.693C229.586 183.968 212.283 183 194 183C129.383 183 77 195.088 77 210C77 224.912 129.383 237 194 237C258.617 237 311 224.912 311 210C311 205.909 307.057 202.03 300 198.555V208H245V185.693Z" fill="white"/>
<ellipse cx="195" cy="131.5" rx="87" ry="10.5" fill="#010101"/>
<path fill-rule="evenodd" clip-rule="evenodd" d="M274 210C283.167 212 305.9 210.8 323.5 190C345.5 164 307.5 144.5 285.5 152.5L279.75 181.25L274 210ZM281 200.5C281.667 187.5 287.6 162.9 306 168.5C329 175.5 310 190.81 303.5 193.5C291.089 198.636 289.602 198.91 283.572 200.02C282.8 200.162 281.953 200.318 281 200.5Z" fill="white"/>
<path d="M138 143C119.2 143.4 107.5 140.5 105 133.5C107 181.5 128.5 216 142 226C183.5 234 268 227 288.5 214.5C272.5 214.5 273.5 210 274 210.5C274.4 210.9 290 210.774 290.5 210.5L300 208L309 205L308.5 204L307.5 203.5C297.5 207.5 287 205.5 282.5 203.5C278 201.5 281.167 179 283.5 167C280.5 177.5 274 221.5 237 224C200 226.5 195 228 165 216C141 206.4 137 163.333 138 143Z" fill="black"/>
<path d="M193 140.5C127 138.9 93.5 115.5 85 104C85 101.2 113.333 105.167 127.5 107.5L134.5 84C144.5 43 154.5 36 162 36C169.5 36 177.5 39 184.5 43C191.5 47 204 47.5 213 43C222 38.5 224 36 239.5 36C251.9 36 264.667 83.6667 269.5 107.5C288 104 307 101 311 104C315 107 275.5 142.5 193 140.5Z" fill="#020202"/>
<path d="M130 117L133 111C190.2 125 242.833 116.833 262 111L265 117C205.8 135.8 150.333 124.833 130 117Z" fill="#95846A"/>
<defs>
<filter id="filter0_d_18_64" x="0" y="0" width="392" height="232" filterUnits="userSpaceOnUse" color-interpolation-filters="sRGB">
<feFlood flood-opacity="0" result="BackgroundImageFix"/>
<feColorMatrix in="SourceAlpha" type="matrix" values="0 0 0 0 0 0 0 0 0 0 0 0 0 0 0 0 0 0 127 0" result="hardAlpha"/>
<feOffset dy="-4"/>
<feGaussianBlur stdDeviation="2"/>
<feComposite in2="hardAlpha" operator="out"/>
<feColorMatrix type="matrix" values="0 0 0 0 0 0 0 0 0 0 0 0 0 0 0 0 0 0 0.25 0"/>
<feBlend mode="normal" in2="BackgroundImageFix" result="effect1_dropShadow_18_64"/>
<feBlend mode="normal" in="SourceGraphic" in2="effect1_dropShadow_18_64" result="shape"/>
</filter>
<linearGradient id="paint0_linear_18_64" x1="196" y1="22" x2="196" y2="232" gradientUnits="userSpaceOnUse">
<stop stop-color="#5D4C42"/>
<stop offset="1" stop-color="#BBB494"/>
</linearGradient>
</defs>
</svg>
