<svg width="283" height="225" viewBox="0 0 283 225" fill="none" xmlns="http://www.w3.org/2000/svg">
<ellipse cx="141.5" cy="198.5" rx="141.5" ry="26.5" fill="black"/>
<ellipse cx="143" cy="195.5" rx="79" ry="23.5" fill="#FFFCFC"/>
<mask id="path-3-inside-1_18_65" fill="white">
<path fill-rule="evenodd" clip-rule="evenodd" d="M25.0595 175C25.0199 175.332 25 175.665 25 176C25 193.121 77.1588 207 141.5 207C205.841 207 258 193.121 258 176C258 175.665 257.98 175.332 257.941 175H25.0595Z"/>
</mask>
<path fill-rule="evenodd" clip-rule="evenodd" d="M25.0595 175C25.0199 175.332 25 175.665 25 176C25 193.121 77.1588 207 141.5 207C205.841 207 258 193.121 258 176C258 175.665 257.98 175.332 257.941 175H25.0595Z" fill="black"/>
<path d="M25.0595 175V174H24.1715L24.0665 174.882L25.0595 175ZM257.941 175L258.934 174.882L258.828 174H257.941V175ZM26 176C26 175.705 26.0175 175.411 26.0524 175.118L24.0665 174.882C24.0223 175.253 24 175.626 24 176H26ZM141.5 206C109.39 206 80.3559 202.536 59.3792 196.954C48.8835 194.161 40.4618 190.853 34.6877 187.22C28.863 183.556 26 179.739 26 176H24C24 180.822 27.6569 185.16 33.6226 188.913C39.639 192.698 48.2783 196.07 58.8649 198.887C80.0529 204.525 109.268 208 141.5 208V206ZM257 176C257 179.739 254.137 183.556 248.312 187.22C242.538 190.853 234.116 194.161 223.621 196.954C202.644 202.536 173.61 206 141.5 206V208C173.732 208 202.947 204.525 224.135 198.887C234.722 196.07 243.361 192.698 249.377 188.913C255.343 185.16 259 180.822 259 176H257ZM256.948 175.118C256.982 175.411 257 175.705 257 176H259C259 175.626 258.978 175.253 258.934 174.882L256.948 175.118ZM257.941 174H25.0595V176H257.941V174Z" fill="black" mask="url(#path-3-inside-1_18_65)"/>
<path d="M90 189.5C64.4 180.7 52.6667 123.167 50 95.4998C111.167 83.3332 215 75.5 235.5 95.4998C240.245 100.129 235.321 109.247 234.176 116.5C233.483 120.893 232.569 125.331 231.5 129.73C224.601 158.125 211.272 184.873 209.5 187C207 190 122 200.5 90 189.5Z" fill="white"/>
<ellipse cx="142.5" cy="95" rx="93.5" ry="17" fill="white"/>
<path fill-rule="evenodd" clip-rule="evenodd" d="M193 149.693C177.586 147.968 160.283 147 142 147C77.3827 147 25 159.088 25 174C25 188.912 77.3827 201 142 201C206.617 201 259 188.912 259 174C259 169.909 255.057 166.03 248 162.555V172H193V149.693Z" fill="white"/>
<ellipse cx="143" cy="95.5" rx="87" ry="10.5" fill="#010101"/>
<path fill-rule="evenodd" clip-rule="evenodd" d="M222 174C231.167 176 253.9 174.8 271.5 154C293.5 128 255.5 108.5 233.5 116.5L227.75 145.25L222 174ZM229 164.5C229.667 151.5 235.6 126.9 254 132.5C277 139.5 258 154.81 251.5 157.5C239.089 162.636 237.602 162.91 231.572 164.02C230.8 164.163 229.953 164.318 229 164.5Z" fill="white"/>
<path d="M86 107C67.2 107.4 55.5 104.5 53 97.5C55 145.5 76.5 180 90 190C131.5 198 216 191 236.5 178.5C220.5 178.5 221.5 174 222 174.5C222.4 174.9 238 174.774 238.5 174.5L248 172L257 169L256.5 168L255.5 167.5C245.5 171.5 235 169.5 230.5 167.5C226 165.5 229.167 143 231.5 131C228.5 141.5 222 185.5 185 188C148 190.5 143 192 113 180C89 170.4 85 127.333 86 107Z" fill="black"/>
<path d="M141 104.5C75 102.9 41.5 79.5 33 68C33 65.2 61.3333 69.1667 75.5 71.5L82.5 48C92.5 7 102.5 0 110 0C117.5 0 125.5 3 132.5 7C139.5 11 152 11.5 161 7C170 2.5 172 0 187.5 0C199.9 0 212.667 47.6667 217.5 71.5C236 68 255 65 259 68C263 71 223.5 106.5 141 104.5Z" fill="#020202"/>
<path d="M78 81L81 75C138.2 89 190.833 80.8333 210 75L213 81C153.8 99.8 98.3333 88.8333 78 81Z" fill="#95846A"/>
</svg>
